HIERARCHY
ROOT hip
{
	OFFSET 0.000000 0.000000 0.000000 
	CHANNELS 6 Xposition Yposition Zposition Xrotation Zrotation Yrotation
	JOINT abdomen
	{
		OFFSET 0.000000 3.402643 0.000000 
		CHANNELS 3 Xrotation Zrotation Yrotation
		JOINT chest
		{
			OFFSET 0.000000 8.438565 -0.680529 
			CHANNELS 3 Xrotation Zrotation Yrotation
			JOINT neck
			{
				OFFSET 0.000000 10.207942 -0.272212 
				CHANNELS 3 Xrotation Zrotation Yrotation
				JOINT head
				{
					OFFSET 0.000000 3.130431 0.000000 
					CHANNELS 3 Xrotation Zrotation Yrotation
					End Site
					{
						OFFSET 0.000000 3.130435 0.000000 
					}
				}
			}
			JOINT lCollar
			{
				OFFSET 3.470700 6.669187 -0.816635 
				CHANNELS 3 Yrotation Zrotation Xrotation
				JOINT lShldr
				{
					OFFSET 3.198488 0.000000 0.000000 
					CHANNELS 3 Zrotation Yrotation Xrotation
					JOINT lForeArm
					{
						OFFSET 10.139888 0.000000 0.000000 
						CHANNELS 3 Yrotation Zrotation Xrotation
						JOINT lHand
						{
							OFFSET 8.370511 0.000000 0.000000 
							CHANNELS 3 Zrotation Yrotation Xrotation
							End Site
							{
								OFFSET 4.083176 0.000000 0.000000 
							}
						}
					}
				}
			}
			JOINT rCollar
			{
				OFFSET -3.470700 6.669187 -0.816635 
				CHANNELS 3 Yrotation Zrotation Xrotation
				JOINT rShldr
				{
					OFFSET -3.198488 0.000000 0.000000 
					CHANNELS 3 Zrotation Yrotation Xrotation
					JOINT rForeArm
					{
						OFFSET -10.139888 0.000000 0.000000 
						CHANNELS 3 Yrotation Zrotation Xrotation
						JOINT rHand
						{
							OFFSET -8.370511 0.000000 0.000000 
							CHANNELS 3 Zrotation Yrotation Xrotation
							End Site
							{
								OFFSET -4.083176 0.000000 0.000000 
							}
						}
					}
				}
			}
		}
	}
	JOINT lThigh
	{
		OFFSET 5.308129 -1.633274 1.361059 
		CHANNELS 3 Xrotation Zrotation Yrotation
		JOINT lShin
		{
			OFFSET -2.041588 -20.007561 0.000000 
			CHANNELS 3 Xrotation Zrotation Yrotation
			JOINT lFoot
			{
				OFFSET 0.000000 -19.190928 -1.224953 
				CHANNELS 3 Xrotation Yrotation Zrotation
				End Site
				{
					OFFSET 0.000000 -2.449906 4.627600 
				}
			}
		}
	}
	JOINT rThigh
	{
		OFFSET -5.308129 -1.633274 1.361059 
		CHANNELS 3 Xrotation Zrotation Yrotation
		JOINT rShin
		{
			OFFSET 2.041588 -20.007561 0.000000 
			CHANNELS 3 Xrotation Zrotation Yrotation
			JOINT rFoot
			{
				OFFSET 0.000000 -19.190928 -1.224953 
				CHANNELS 3 Xrotation Yrotation Zrotation
				End Site
				{
					OFFSET 0.000000 -2.449906 4.627600 
				}
			}
		}
	}
}
MOTION
Frames: 11
Frame Time: 0.016667
0.439556 44.171391 0.507601 3.268040 5.684160 -11.072100 -18.290800 -0.755923 1.041070 17.936701 -2.604700 0.480349 0.075427 1.701030 -8.662410 7.355560 6.018060 -3.827710 2.000000 -2.000000 0.000000 103.272003 178.412003 -5.892200 58.926300 -0.285415 0.117152 0.045974 -0.020699 -144.334000 -2.000000 2.000000 0.000000 18.695700 33.145100 149.787003 -91.611801 0.211278 0.117144 -0.078158 -0.074263 -105.339996 -10.343915 1.968231 -5.927753 27.591442 3.592349 1.851700 -6.599614 21.144035 3.714013 -15.079755 3.150992 20.613178 30.995007 -2.623011 -2.334482 -14.794436 -9.411976 -2.730765 
0.693983 44.059502 0.542184 3.169320 5.577450 -11.546700 -18.241899 -0.755199 1.070690 18.005199 -2.604840 0.487008 -0.430314 1.405820 -8.583040 7.326420 6.057300 -3.769950 2.000000 -2.000000 0.000000 103.339996 178.363007 -5.755590 59.102100 -0.285055 0.117368 0.045943 -0.020455 -144.246002 -2.000000 2.000000 0.000000 17.991501 32.696301 149.542007 -91.894997 0.210651 0.117125 -0.081055 -0.088570 -103.416000 -9.947748 1.541825 -5.645254 27.616695 3.552277 1.861493 -7.844420 20.800508 4.032681 -15.417938 3.118920 20.618792 31.820932 -2.616562 -2.387375 -15.160124 -9.047338 -2.712526 
0.965058 43.998135 0.574551 3.089510 5.324330 -11.929300 -18.232500 -0.749012 0.976128 18.005100 -2.634110 0.449247 -0.923149 1.194310 -8.400600 7.100020 5.990820 -3.699650 2.000000 -2.000000 0.000000 103.555000 178.225998 -5.697300 59.219299 -0.284815 0.117511 0.045834 -0.019586 -143.932999 -2.000000 2.000000 0.000000 16.934099 33.150200 147.276993 -91.367599 0.211819 0.117158 -0.083332 -0.091916 -101.971001 -9.677236 1.271333 -5.566946 27.563055 3.509590 1.862268 -9.178823 22.236841 4.638935 -15.544106 3.148896 20.631292 32.155796 -2.606360 -2.407960 -15.241428 -8.764103 -2.686840 
1.236136 43.936775 0.606917 3.009840 5.071160 -12.320900 -18.223000 -0.739393 0.890594 18.004999 -2.673130 0.402154 -1.415880 0.982549 -8.214320 6.873760 5.933980 -3.619590 2.000000 -2.000000 0.000000 103.769997 178.089996 -5.648780 59.336399 -0.284575 0.117654 0.045729 -0.018718 -143.621002 -2.000000 2.000000 0.000000 15.856900 33.564800 144.988007 -90.840302 0.212987 0.117180 -0.085692 -0.085439 -100.525002 -9.441410 1.000311 -5.507161 27.528582 3.474427 1.873768 -10.504778 23.651213 5.312569 -15.667515 3.184097 20.633940 32.510727 -2.594171 -2.437898 -15.356881 -8.502199 -2.643168 
1.528811 43.860325 0.625391 2.930500 4.866700 -12.641000 -18.204201 -0.796778 0.765305 18.014700 -2.731690 0.345698 -1.798080 0.885010 -8.067900 6.696700 5.886450 -3.542370 2.000000 -2.000000 0.000000 104.151001 178.128006 -5.443610 59.287601 -0.284675 0.117594 0.045771 -0.019071 -143.748001 -2.000000 2.000000 0.000000 14.855800 35.096401 140.733002 -89.160698 0.216852 0.136710 -0.082322 -0.090454 -102.605003 -9.214164 0.779286 -5.185251 27.321445 3.475074 1.866057 -11.720590 24.633223 5.908793 -15.851670 3.154203 20.655722 32.964775 -2.569290 -2.471610 -15.493157 -8.199166 -2.622072 
1.821497 43.784016 0.643864 2.851280 4.671970 -12.960900 -18.185301 -0.844889 0.636962 18.024300 -2.790250 0.279456 -2.180250 0.787340 -7.919880 6.519610 5.829090 -3.475050 2.000000 -2.000000 0.000000 104.531998 178.156998 -5.238470 59.238800 -0.284775 0.117535 0.045814 -0.019424 -143.875000 -2.000000 2.000000 0.000000 13.697200 36.549500 136.365005 -87.490700 0.220835 0.136594 -0.079141 -0.075842 -104.676003 -8.906569 0.555761 -4.889298 27.009907 3.446089 1.862209 -12.934980 25.620037 6.544712 -16.091955 3.142536 20.669558 33.562820 -2.573193 -2.491538 -15.750642 -7.898265 -2.566940 
2.107668 43.722656 0.645880 2.762230 4.447970 -13.164400 -18.205299 -0.896214 0.500132 17.955900 -2.780340 0.204216 -2.290780 0.848536 -7.882350 6.460650 5.819710 -3.461880 2.000000 -2.000000 0.000000 104.990997 178.292999 -4.945200 59.102100 -0.285055 0.117368 0.045912 -0.020211 -144.158005 -2.000000 2.000000 0.000000 12.654700 39.009201 131.177002 -84.951698 0.226880 0.136194 -0.072072 -0.063445 -109.773003 -8.677619 0.442298 -4.551513 26.744699 3.434771 1.842619 -13.868109 26.097095 7.042814 -16.267368 3.149057 20.718290 33.987362 -2.553537 -2.537016 -15.835283 -7.794045 -2.594347 
2.393849 43.661430 0.647895 2.683110 4.233650 -13.366000 -18.225201 -0.947540 0.363301 17.897301 -2.770460 0.138247 -2.411060 0.909675 -7.845850 6.401690 5.810320 -3.438930 2.000000 -2.000000 0.000000 105.440002 178.429001 -4.661690 58.955601 -0.285355 0.117188 0.046014 -0.020997 -144.440994 -2.000000 2.000000 0.000000 11.268300 41.370800 125.735001 -82.422401 0.232878 0.135530 -0.066132 -0.050470 -114.871002 -8.449985 0.332505 -4.243555 26.538160 3.426677 1.823238 -14.845409 26.591681 7.518394 -16.469042 3.173108 20.761662 34.468735 -2.543823 -2.554775 -15.912075 -7.711024 -2.610337 
2.697802 43.569775 0.643738 2.584670 4.077890 -13.331500 -18.293699 -0.977637 0.199811 17.760599 -2.682350 0.052686 -2.410440 0.967618 -7.858040 6.342730 5.800930 -3.445260 2.000000 -2.000000 0.000000 105.751999 178.789001 -4.221440 58.623600 -0.286032 0.116777 0.046053 -0.021295 -144.548996 -2.000000 2.000000 0.000000 9.669510 42.879398 122.192001 -80.400902 0.237647 0.134810 -0.061904 -0.038742 -119.323997 -8.140450 0.220574 -4.029782 26.140541 3.444937 1.791521 -15.621738 26.510712 7.773754 -16.657434 3.023928 20.590729 35.019230 -2.529187 -2.579460 -16.190882 -7.550664 -2.654091 
3.001779 43.478130 0.639582 2.476540 3.931880 -13.296600 -18.371799 -0.995007 0.042476 17.623899 -2.594260 -0.033294 -2.419560 1.025530 -7.871050 6.283840 5.801290 -3.460950 2.000000 -2.000000 0.000000 106.055000 179.149994 -3.781190 58.281799 -0.286727 0.116351 0.046093 -0.021593 -144.656006 -2.000000 2.000000 0.000000 7.903460 44.309601 118.496002 -78.379402 0.242388 0.133921 -0.058594 -0.036460 -123.787003 -7.830996 0.101586 -3.836100 25.764265 3.451636 1.767302 -16.392426 26.466413 8.029533 -16.917797 2.910779 20.437181 35.706955 -2.528377 -2.635182 -16.495541 -7.418485 -2.716621 
3.316000 43.427204 0.614850 2.349070 3.854190 -13.074100 -18.449800 -1.033340 -0.087403 17.379801 -2.476660 -0.097085 -2.284420 1.223110 -7.994570 6.303650 5.830440 -3.516410 2.000000 -2.000000 0.000000 106.289001 179.822006 -3.232820 57.910702 -0.287479 0.115883 0.046039 -0.021187 -144.509995 -2.000000 2.000000 0.000000 6.302750 43.332100 119.305000 -77.978996 0.243323 0.133726 -0.059034 -0.038295 -123.112999 -7.653989 -0.010551 -3.730977 25.659296 3.427672 1.772765 -16.583292 25.985886 7.971206 -17.212048 2.637882 20.034363 36.405537 -2.501492 -2.672444 -16.552721 -7.267577 -2.724423 
